<svg height="440" viewBox="0 0 399 440" width="399" xmlns="http://www.w3.org/2000/svg"><path d="m335.390991 218.10199c-.539978.328003-18.348999-2.660004-40.664978-4.17099-18.225006-1.234986-39.456024-1.187989-56.744018-.016999-14.018982.949006-32.437989-6.097991-34.639008 2.277009-8.237976 31.350982-25.962982 58.654998-48.510986 79.927978-16.963013 16.003021-36.376999 28.138001-57.375 35.615021-24.999008-12.842011-36.805008-41.404022-26.152008-66.447022 8.449005-19.862976 18.280014-41.73999.130005-46.744995-13.212998-3.643982-20.468003 9.013001-25.546998 22.545014-9.729995 25.923004-28.218994 52.747985-33.488006 84.520996-5.561997 33.542022-.01799 69.147003 28.992004 89.253021 67.561997 46.825989 140.899994-29.028015 218.225006-48.096008 28.023987-6.911011 58.785004-5.796997 83.475006-20.097016 18.540986-10.739013 30.763978-28.535003 34.233002-48.515991 5.580017-32.136993-11.139007-64.066009-41.934021-80.050018z" fill="#c21325" stroke="#fff" stroke-width="20"/><path d="m203.342987 216.19101c-8.237976 31.350982-25.962982 58.654998-48.510986 79.927978-16.963013 16.003021-36.376999 28.138001-57.376007 35.615021-24.998993-12.842011-36.804993-41.404022-26.151993-66.447022 8.449005-19.862976 18.279999-41.73999.130005-46.744995-13.213013-3.643982-20.468003 9.013001-25.547013 22.545014-9.729995 25.923004-28.218994 52.747985-33.487991 84.520996-5.561996 33.542022-.018005 69.147003 28.992004 89.253021 67.561997 46.825989 140.899979-29.028015 218.225998-48.096008 28.023987-6.911011 58.785004-5.796997 83.475006-20.097016 18.540986-10.739013 30.763978-28.535003 34.233002-48.514984 5.580017-32.137024-11.139007-64.066009-41.934021-80.050018" fill="none" stroke="#fff" stroke-width="20"/><path d="m265.364014 91.169983 54.320984 110.812012 65.093017-191.981995h-238.989014l64.942994 191.640991z" fill="#c21325"/><path d="m265.364014 91.169983 54.320984 110.812012 65.09198-191.981995h-238.987977l64.942994 191.640991z" fill="none" stroke="#fff" stroke-width="20"/><path d="m240.404999 216.583008c0 22.613281-18.331696 40.945007-40.945008 40.945007-22.613281 0-40.944976-18.331726-40.944976-40.945007 0-22.613312 18.331695-40.945008 40.944976-40.945008 22.613312 0 40.945008 18.331696 40.945008 40.945008z" fill="#c21325"/><g stroke="#fff" stroke-width="20"><path d="m240.404999 216.583008c0 22.613281-18.331696 40.945007-40.945008 40.945007-22.613281 0-40.944976-18.331726-40.944976-40.945007 0-22.613312 18.331695-40.945008 40.944976-40.945008 22.613312 0 40.945008 18.331696 40.945008 40.945008z" fill="none"/><path d="m373.789001 216.583008c0 22.613281-18.331695 40.945007-40.945007 40.945007-22.613281 0-40.945007-18.331726-40.945007-40.945007 0-22.613312 18.331726-40.945008 40.945007-40.945008 22.613312 0 40.945007 18.331696 40.945007 40.945008z" fill="#c21325"/><path d="m373.789001 216.583008c0 22.613281-18.331695 40.945007-40.945007 40.945007-22.613281 0-40.945007-18.331726-40.945007-40.945007 0-22.613312 18.331726-40.945008 40.945007-40.945008 22.613312 0 40.945007 18.331696 40.945007 40.945008z" fill="none"/></g><path d="m106.516006 216.877014c0 22.613281-18.33171 40.944977-40.945007 40.944977-22.613296 0-40.944992-18.331696-40.944992-40.944977 0-22.613312 18.331696-40.945007 40.944992-40.945007 22.613297 0 40.945007 18.331695 40.945007 40.945007z" fill="#c21325"/><path d="m106.516006 216.877014c0 22.613281-18.33171 40.944977-40.945007 40.944977-22.613296 0-40.944992-18.331696-40.944992-40.944977 0-22.613312 18.331696-40.945007 40.944992-40.945007 22.613297 0 40.945007 18.331695 40.945007 40.945007z" fill="none" stroke="#fff" stroke-width="20"/></svg>